<svg xmlns="http://www.w3.org/2000/svg" viewBox="0 0 190.38 602.24"><defs><style>.cls-1{isolation:isolate;}.cls-2{fill:#b7d657;}.cls-3{fill:#d5e599;}.cls-4{fill:#71953d;}.cls-5{fill:#723d98;opacity:0.15;mix-blend-mode:multiply;}.cls-6{fill:#d688ba;}.cls-7{fill:#613f79;}.cls-8{fill:#442467;}</style></defs><title>Ресурс 3sling-shot</title><g class="cls-1"><g id="Слой_2" data-name="Слой 2"><g id="birds"><path class="cls-2" d="M30.09.29C45.34-.42,62.51-.38,63,7.06c.58,9.49,6.15,141.19,11.51,182.82,8.8,68.39,35.89,103.6,35.89,103.6s23.7-57.55,26.41-118.5c2.56-57.51-.26-139.21,0-144.9s8.75-12.19,26.36-12.19,25,6,25.05,14.22,1,69.57-4.61,141.52c-8.13,105-48.21,172.66-48.21,172.66s-2,176.73,10.83,255.95H87.35s6.77-86,4.74-143.55-4.74-105.63-4.74-105.63c-39.27-44.9-57.68-100.21-69.87-175.37C5.54,104.1,0,21.36,0,13.29,0,7.35,15.15,1,30.09.29Z"/><path class="cls-3" d="M171.88,18.48c2.72,66.12.54,198.29-47.33,321.3,0,0,4,161.09.66,262.46h21C133.39,523,135.42,346.3,135.42,346.3s40.08-67.71,48.21-172.66c5.57-71.94,4.67-133.27,4.61-141.52C188.19,25.39,183.26,20.18,171.88,18.48Z"/><path class="cls-4" d="M47.21,234C34.29,182.92,25.5,79.62,21.21,1.35,9.7,3.53,0,8.54,0,13.29c0,8.08,5.54,90.81,17.48,164.41,12.19,75.16,30.6,130.47,69.87,175.37,0,0,2.71,48.08,4.74,105.63s-4.74,143.55-4.74,143.55h19.14c-4.88-59.55-8.46-216.24.8-252.58C87,336.9,63.73,299.35,47.21,234ZM166.41,18c-1,0-2.11-.07-3.23-.07-17.61,0-26.05,6.49-26.36,12.19s2.51,87.39,0,144.9c-2.71,60.94-26.41,118.5-26.41,118.5s-.85-1.11-2.27-3.27c1.28,8.8,4.52,16.56,12.7,4.63C145.77,258.46,168.68,132.05,166.41,18Z"/><path class="cls-5" d="M112.28,427.51a25.2,25.2,0,0,0-14-11,35.52,35.52,0,0,1,10.16,13.11,38.2,38.2,0,0,1,3.19,15.6,37.25,37.25,0,0,1-13.35,28.84,26.23,26.23,0,0,0,13.94-11.13,33.68,33.68,0,0,0,.1-35.42ZM68.07,271.9c-5.79-4.32-12.92-7-19.93-6.75a44.53,44.53,0,0,1,17.11,10.14,47.76,47.76,0,0,1,11,15.84,52.86,52.86,0,0,1,4.26,18.92,81,81,0,0,1-2,20.12,45.48,45.48,0,0,0,2.92-41.29A41.93,41.93,0,0,0,68.07,271.9ZM130.79,268A29.15,29.15,0,0,0,136,253a28.4,28.4,0,0,0-3.82-15.51,32.2,32.2,0,0,0-3.46-4.87q-.58,2.61-1.18,5.15c.21.53.45,1.05.64,1.58a33.85,33.85,0,0,1,2.15,13.35A35.59,35.59,0,0,1,127,265.84a102.3,102.3,0,0,1-7.4,12.64A34.78,34.78,0,0,0,130.79,268Zm9.13-42.38a60.82,60.82,0,0,0-7.45-11.42l-.06-.06q-.37,2.12-.75,4.21a93.23,93.23,0,0,1,4.24,9.09,72.75,72.75,0,0,1,5.27,24.83,42.1,42.1,0,0,1-6.06,23.81c-4.44,7.09-11.43,12.56-19.29,16.75a39.91,39.91,0,0,0,22.91-14.2,37.9,37.9,0,0,0,6.35-12.56,48.25,48.25,0,0,0,1.76-13.91A62.73,62.73,0,0,0,139.92,225.67ZM124.49,553.93a36.23,36.23,0,0,1-6.44-21,38.86,38.86,0,0,1,6.53-21.11,51.08,51.08,0,0,1,13.06-13.29l-.05-1.31a40,40,0,0,0-16.56,12,38.7,38.7,0,0,0-6.33,11,39.31,39.31,0,0,0-2.32,12.64,37.7,37.7,0,0,0,2.16,12.69,35.92,35.92,0,0,0,6.44,11,37.29,37.29,0,0,0,21.16,12.27C135,565.11,128.76,560.18,124.49,553.93Zm14.32-31q-.09-1.68-.18-3.36a22.24,22.24,0,0,0-6.21,4.38,19.54,19.54,0,0,0-5.8,12.72,17.14,17.14,0,0,0,5.23,13.17,18.47,18.47,0,0,0,9.06,4.79c-.05-.66-.1-1.33-.16-2a26.48,26.48,0,0,1-5.55-5.68,16.23,16.23,0,0,1-2.92-10,20.5,20.5,0,0,1,3.54-10.19A33.52,33.52,0,0,1,138.81,523Z"/><path class="cls-6" d="M32.85,17.26c15.8-1.72,30.34-6,30.12-10.2C62.59-.39,45.34-.42,30.09.29,15.15,1,0,7.35,0,13.29,0,17.69,18,18.88,32.85,17.26Z"/><path class="cls-7" d="M163.75,73.95a51,51,0,0,1,24.58,9.53c3.57,3.92,2.35,55.62-2.56,57.91a59.36,59.36,0,0,0-23.54-7.22,45.53,45.53,0,0,0-24.49,4.18c-4.21-2.28-4.51-55.38,0-59.29C137.73,79.06,146.77,72.08,163.75,73.95Z"/><path class="cls-8" d="M160.5,134c3.12-28.06,4.32-45.78,5.34-59.81-.69-.11-1.38-.21-2.1-.29-17-1.86-26,5.12-26,5.12-4.51,3.91-4.21,57,0,59.29A45.38,45.38,0,0,1,160.5,134Z"/><path class="cls-7" d="M37.48,65.57c23.48-.93,27.93-8.35,27.93-8.35,6.55.46,7.12,71,4.34,76.72,0,0-6.69,7.9-28.55,10s-29.58-6.53-29.58-6.53c-3.34-3-14.54-72.88-8.5-79C3.12,58.4,14,66.5,37.48,65.57Z"/><path class="cls-8" d="M25.57,65.25C10.3,63.74,3.12,58.4,3.12,58.4c-6,6.12,5.17,76,8.5,79,0,0,5.7,6.31,21.07,6.81C29.56,117.58,27.09,81.68,25.57,65.25Z"/></g></g></g></svg>